<svg xmlns="http://www.w3.org/2000/svg" xmlns:xlink="http://www.w3.org/1999/xlink" width="73" height="73" version="1.1" viewBox="0 0 73 73"><title>web-components/constructible-stylesheets</title><desc>Created with Sketch.</desc><g id="web-components/constructible-stylesheets" fill="none" fill-rule="evenodd" stroke="none" stroke-width="1"><g id="container" fill="#FFF" fill-rule="nonzero" stroke="#2C396B" stroke-width="2" transform="translate(2.000000, 2.000000)"><rect id="mask" width="71" height="71" x="-1" y="-1" rx="14"/></g><g id="shredder" fill-rule="nonzero" transform="translate(10.000000, 10.000000)"><polygon id="Shape" fill="#E0F4FF" points="9.42 0 43.58 0 43.58 17.287 9.42 17.287"/><polygon id="Shape" fill="#BBDCFF" points="26.5 0 43.58 0 43.58 17.287 26.5 17.287"/><polygon id="Shape" fill="#FF641A" points="53 15.734 53 40.578 42.027 40.578 42.027 34.367 35.816 34.367 35.816 40.578 29.605 40.578 29.605 34.367 23.395 34.367 23.395 40.578 17.184 40.578 17.184 34.367 10.973 34.367 10.973 40.578 0 40.578 0 15.734"/><polygon id="Shape" fill="#BBDCFF" points="15.631 6.418 37.369 6.418 37.369 9.523 15.631 9.523"/><polygon id="Shape" fill="#9ABADB" points="26.5 6.418 37.369 6.418 37.369 9.523 26.5 9.523"/><polygon id="Shape" fill="#F03800" points="53 15.734 53 40.578 42.027 40.578 42.027 34.367 35.816 34.367 35.816 40.578 29.605 40.578 29.605 34.367 26.5 34.367 26.5 15.734"/><polygon id="Shape" fill="#E0F4FF" points="18.736 53 9.42 53 9.42 32.814 18.736 32.814"/><polygon id="Shape" fill="#E0F4FF" points="21.842 32.814 21.842 53 31.158 53 31.158 32.814"/><g id="Group" fill="#BBDCFF" transform="translate(26.500000, 21.945312)"><polygon id="Shape" points="17.08 31.055 7.764 31.055 7.764 10.869 17.08 10.869"/><polygon id="Shape" points="4.658 0 13.975 0 13.975 3.105 4.658 3.105"/><polygon id="Shape" points="17.08 0 20.186 0 20.186 3.105 17.08 3.105"/><polygon id="Shape" points="0 10.869 4.658 10.869 4.658 31.055 0 31.055"/></g><polygon id="Shape" fill="#61729B" points="6.314 31.262 46.686 31.262 46.686 34.367 6.314 34.367"/><polygon id="Shape" fill="#47568C" points="26.5 31.262 46.686 31.262 46.686 34.367 26.5 34.367"/></g></g></svg>