<svg xmlns="http://www.w3.org/2000/svg" xmlns:xlink="http://www.w3.org/1999/xlink" width="73" height="73" version="1.1" viewBox="0 0 73 73"><title>fundamentals/the-browser/servo</title><desc>Created with Sketch.</desc><g id="fundamentals/the-browser/servo" fill="none" fill-rule="evenodd" stroke="none" stroke-width="1"><g id="container" fill="#FFF" fill-rule="nonzero" stroke="#9E342B" stroke-width="2" transform="translate(2.000000, 2.000000)"><rect id="mask" width="71" height="71" x="-1" y="-1" rx="14"/></g><g id="opera" fill="#E2574C" fill-rule="nonzero" transform="translate(13.000000, 11.000000)"><path id="Shape" d="M37.2693276,3.97629197 C33.5297196,1.4159428 28.9014628,0 23.6827964,0 C18.9092346,0 14.6314089,1.18081931 11.0717849,3.34010606 C4.21956502,7.45546075 0,15.1587028 0,25.0293812 C0,38.3806155 9.46961597,50.5432278 23.6781147,50.5432278 C37.8848795,50.5432278 47.3531083,38.3837366 47.3531083,25.0293812 C47.3515477,15.6449021 43.5377268,8.2194387 37.2693276,3.97629197 Z M23.6812358,4.71512766 C31.3024621,4.71512766 33.1461701,15.3040077 33.1461701,24.9220498 C33.1461701,33.8345479 31.9906665,45.7603027 23.7727883,45.7603027 C15.5549102,45.7603027 14.198962,33.7176797 14.198962,24.8067421 C14.2005226,15.1887001 16.058449,4.71512766 23.6812358,4.71512766 Z"/></g></g></svg>