<svg xmlns="http://www.w3.org/2000/svg" xmlns:xlink="http://www.w3.org/1999/xlink" width="73" height="73" version="1.1" viewBox="0 0 73 73"><title>the-modern-web/credentials-manager-api</title><desc>Created with Sketch.</desc><g id="the-modern-web/credentials-manager-api" fill="none" fill-rule="evenodd" stroke="none" stroke-width="1"><g id="container" fill="#FFF" fill-rule="nonzero" stroke="#123B5A" stroke-width="2" transform="translate(2.000000, 2.000000)"><rect id="mask" width="71" height="71" x="-1" y="-1" rx="14"/></g><g id="waranty" fill-rule="nonzero" transform="translate(22.000000, 15.000000)"><path id="Shape" fill="#CCDAEC" d="M3.06475102,0 L26.9441869,0 C28.6132813,0 29.9662341,1.3532839 29.9662341,3.02237814 L29.9662341,40.3674524 C29.9662341,42.0365466 28.6132813,43.3898305 26.9441869,43.3898305 L3.06475102,43.3898305 C1.39565678,43.3898305 0.0423728814,42.0365466 0.0423728814,40.3674524 L0.0423728814,3.02237814 C0.0423728814,1.3532839 1.39565678,0 3.06475102,0 Z"/><polygon id="Shape" fill="#DB98A4" points="13.415 20.204 11.671 17.552 9.019 19.296 10.873 10.322 15.257 11.284"/><polygon id="Shape" fill="#DB98A4" points="16.846 20.204 18.59 17.552 21.242 19.296 19.389 10.322 15.004 11.284"/><g id="Group" fill="#4D8EBE" transform="translate(5.254237, 23.898305)"><polygon id="Shape" points=".025 .041 19.476 .041 19.476 1.537 .025 1.537"/><polygon id="Shape" points=".025 5.278 19.476 5.278 19.476 6.774 .025 6.774"/><polygon id="Shape" points=".025 11.263 19.476 11.263 19.476 12.759 .025 12.759"/></g><path id="Shape" fill="#FFD789" d="M20.2409958,8.22894593 C20.2409958,11.1212262 17.8965837,13.4659693 15.0043035,13.4659693 C12.1123543,13.4659693 9.76761119,11.1212262 9.76761119,8.22894593 C9.76761119,5.33699678 12.1123543,2.99225373 15.0043035,2.99225373 C17.8965837,2.99225373 20.2409958,5.33699678 20.2409958,8.22894593 Z"/></g></g></svg>