<svg xmlns="http://www.w3.org/2000/svg" xmlns:xlink="http://www.w3.org/1999/xlink" width="73" height="73" version="1.1" viewBox="0 0 73 73"><title>the-modern-web/native-file-system</title><desc>Created with Sketch.</desc><g id="the-modern-web/native-file-system" fill="none" fill-rule="evenodd" stroke="none" stroke-width="1"><g id="container" fill-rule="nonzero" transform="translate(2.000000, 2.000000)"><rect id="mask" width="71" height="71" x="-1" y="-1" fill="#FFF" stroke="#343B4E" stroke-width="2" rx="14"/><g id="folder" transform="translate(13.000000, 13.000000)"><polygon id="Shape" fill="#7383BF" points="18.585 10.932 14.941 5.831 .364 5.831 .364 10.932 .364 43 42.636 43 42.636 16.034 22.229 16.034"/><polygon id="Shape" fill="#EBBA16" points="22.229 16.034 42.636 16.034 42.636 10.932 18.585 10.932"/><polygon id="Shape" fill="#556080" points="42.636 8.017 20.771 8.017 17.127 2.915 2.551 2.915 2.551 5.831 14.941 5.831 18.585 10.932 42.636 10.932"/><polygon id="Shape" fill="#424A60" points="42.636 5.102 22.958 5.102 19.314 0 4.737 0 4.737 2.915 17.127 2.915 20.771 8.017 42.636 8.017"/><rect id="Rectangle-path" width="18.949" height="13.119" x="20.042" y="26.237" fill="#EDEADA"/><g id="Group" fill="#CEC9AE" transform="translate(23.322034, 29.152542)"><rect id="Rectangle-path" width="7.288" height="1.458" x=".364" y="0"/><rect id="Rectangle-path" width="11.661" height="1.458" x=".364" y="2.915"/><rect id="Rectangle-path" width="11.661" height="1.458" x=".364" y="5.831"/></g></g></g></g></svg>